<?xml version="1.0" encoding="UTF-8" standalone="no" ?>
<!DOCTYPE svg PUBLIC "-//W3C//DTD SVG 1.1//EN" "http://www.w3.org/Graphics/SVG/1.1/DTD/svg11.dtd">
<svg xmlns="http://www.w3.org/2000/svg" xmlns:xlink="http://www.w3.org/1999/xlink" version="1.1" width="1280" height="1024" viewBox="0 0 1280 1024" xml:space="preserve">
<desc>Created with Fabric.js 5.3.0</desc>
<defs>
</defs>
<g transform="matrix(1 0 0 1 640 512)" id="background-logo"  >
<rect style="stroke: none; stroke-width: 0; stroke-dasharray: none; stroke-linecap: butt; stroke-dashoffset: 0; stroke-linejoin: miter; stroke-miterlimit: 4; fill: rgb(255,255,255); fill-rule: nonzero; opacity: 1;"  paint-order="stroke"  x="-640" y="-512" rx="0" ry="0" width="1280" height="1024" />
</g>
<g transform="matrix(5.187115384615383 0 0 4.994999999999999 639.1647157190636 512)" id="shape-5fc3c287-e946-4054-b74e-cc301dc3126b"  >
<g style=""  paint-order="stroke"   >
		<g transform="matrix(1 0 0 1 0 0)" id="Layer_1"  >
<rect style="stroke: none; stroke-width: 0; stroke-dasharray: none; stroke-linecap: butt; stroke-dashoffset: 0; stroke-linejoin: miter; stroke-miterlimit: 4; fill: rgb(237,230,231); fill-rule: nonzero; opacity: 1;"  paint-order="stroke"  x="-100" y="-100" rx="40" ry="40" width="200" height="200" />
</g>
</g>
</g>
<g transform="matrix(4.018026483771987 0 0 4.568910581068556 650.9589297658863 512)" id="logo-logo"  >
<g style=""  paint-order="stroke"   >
		<g transform="matrix(0.3218987463568015 0 0 0.3218987463568015 -7.198923691199639 7.240968726458306)"  >
<path style="stroke: none; stroke-width: 0; stroke-dasharray: none; stroke-linecap: butt; stroke-dashoffset: 0; stroke-linejoin: miter; stroke-miterlimit: 4; fill: rgb(155,54,181); fill-rule: nonzero; opacity: 1;"  paint-order="stroke"  transform=" translate(-559.5860737999999, -488.0445417)" d="M 853.7802455 454.9690266 L 857.1933839999999 463.8885608 L 651.1537900999999 713.1352178 L 352.6827104999999 744.8515788 L 313.5324367999999 642.5790945 L 305.34137839999994 638.5611635 L 303.9630912999999 633.0291781 L 306.8165745999999 625.0128638 L 296.0632336999999 596.9262055 L 285.9700110999999 593.5877035000001 L 283.2134367999999 589.4338868000001 L 287.1926278999999 573.7503912000001 L 261.97876359999987 507.83322180000005 L 468.01835749999987 258.5865648 L 725.3590454999999 231.23750460000002 C 708.2004722999999 254.54920470000002 690.3623515999999 277.3950783 671.8837786999999 299.73626720000004 L 499.9483210999999 318.00123750000006 L 333.35020169999984 519.5570740000001 L 339.23155699999984 534.9299396 L 353.09024969999984 544.4604268 L 352.02282939999986 568.3155516 L 363.02851269999985 597.1202603 L 371.06413769999983 599.8183101000001 L 373.8399041999998 608.1259436 L 372.0540780999998 620.6843028000001 L 393.8517236999998 677.6533865000001 L 619.2240635999998 653.7011158000001 L 696.6943689999998 559.9839870000002 L 739.1343347999998 523.7139709000002 L 776.4942805999998 487.04589350000015 L 837.3770410999998 452.4534213000002 L 853.7802456999998 454.9690264000002 Z" stroke-linecap="round" />
</g>
		<g transform="matrix(0.3218987463568015 0 0 0.3218987463568015 62.21886170055552 5.265890838316523)"  >
<path style="stroke: none; stroke-width: 0; stroke-dasharray: none; stroke-linecap: butt; stroke-dashoffset: 0; stroke-linejoin: miter; stroke-miterlimit: 4; fill: rgb(87,21,104); fill-rule: nonzero; opacity: 1;"  paint-order="stroke"  transform=" translate(-775.2370702, -481.9088300500001)" d="M 853.7802455 454.9690266 C 842.827874 463.170155 819.6249299 480.537355 810.472127 487.37607130000004 L 810.0020356 487.7276921 L 809.51678 488.0584621 C 799.0269178000001 495.21219179999997 772.4857086000001 513.302181 762.3446239 520.1715812 L 761.7968158 520.5412095 L 761.2338434 520.8852482000001 C 755.5491493 524.3455380000001 749.3905728 528.2019935000001 742.8699501 532.2859125000001 C 732.5829095 538.7278707000002 721.9470914999999 545.3897104000001 712.3879344 550.9663593000001 C 707.2072144 554.0067892000002 701.9608615999999 557.0030296000001 696.6938948999999 559.9843426000001 L 785.8219459 452.1647086000001 L 781.1828734999999 440.0527467000001 C 787.821256 435.1225920000001 794.4984969 430.2506064000001 801.2143591999999 425.47564820000014 C 811.7151206999998 418.06092770000015 823.1866304999999 411.2480380000001 834.2117429999998 403.83331750000013 L 853.7802454999999 454.96902650000015 Z" stroke-linecap="round" />
</g>
		<g transform="matrix(0.3218987463568015 0 0 0.3218987463568015 0 -14.595554794059922)"  >
<path style="stroke: none; stroke-width: 0; stroke-dasharray: none; stroke-linecap: butt; stroke-dashoffset: 0; stroke-linejoin: miter; stroke-miterlimit: 4; fill: rgb(155,54,181); fill-rule: nonzero; opacity: 1;"  paint-order="stroke"  transform=" translate(-581.9500120652955, -420.2079198813054)" d="M 339.2377171 534.9359818 C 352.5381762 524.1117955000001 365.4801433 512.9118204 378.0598272 501.4818938 C 389.8400714 490.30016320000004 402.7855926 478.1087074 413.90429689999996 466.19091890000004 C 413.90405999999996 466.19091890000004 431.14153459999994 448.00200670000004 431.14153459999994 448.00200670000004 L 447.54000039999994 429.06518950000003 C 458.77717529999995 416.54142370000005 472.26529189999997 398.6225061 482.80088379999995 385.41528330000006 C 489.908173 375.44254530000006 501.83674239999993 358.7460075000001 509.01345539999994 348.70088390000006 C 521.4123532 331.3437539000001 545.5346291999999 327.3241644000001 562.8915222999999 339.7232991000001 C 582.1664546 353.22444750000005 584.5564807999999 381.7207772000001 567.9111222999999 398.30168770000006 C 561.4075592999999 404.91744230000006 545.7952645999999 420.65638220000005 539.5601560999999 426.96719340000004 C 537.2357625999998 429.4187059 532.4260924999999 434.0379937 529.9095396999999 436.27602210000003 C 518.3027364999999 446.77642820000005 502.0753422999999 462.350457 490.01005779999986 471.9718111 C 490.01100559999986 471.9718111 469.5473390999999 489.08963040000003 469.5473390999999 489.08963040000003 L 448.36147569999986 505.28622220000005 C 443.15611379999984 509.40426080000003 432.38571309999986 517.2638384 426.87754029999985 520.9642681 C 402.84696049999985 538.1574348 377.77905199999987 553.9102357 352.01382539999986 568.3218307000001 L 339.23771719999985 534.9359817000001 Z M 363.0323034 597.1141 L 372.05526249999997 620.6927144 C 393.44513229999995 611.6089799 414.47556219999996 601.6100599 435.26431199999996 591.1117862 C 539.4819653999999 537.5891312 634.8816138 466.69619589999996 720.4425146 386.7331503 C 763.456826 346.57090059999996 804.2571584 303.9332073 842.8198179 259.31444839999995 C 860.0113259999999 239.72568739999994 856.1425495 208.79265409999994 834.59464 194.09116139999995 C 814.5484640000001 180.22358339999994 787.0561727 185.23216569999994 773.1880024000001 205.27834169999994 C 733.3515469000001 262.82958999999994 689.689912 318.21792029999995 642.3481060000001 369.93709709999996 C 614.0047219000002 400.9282995 583.8278865000001 431.11615259999996 552.5857633000002 459.1981906 C 494.45744460000014 510.79771209999996 431.52798570000016 559.3096524 363.03230340000016 597.1141 Z M 287.2006836 573.7456525 C 263.233604 589.9705588 238.2396212 604.5823692 212.18793269999998 616.817659 C 205.79810149999997 619.4895268 209.13233859999997 628.6917319 215.55155039999997 627.0979467000001 C 243.41868259999995 619.4909484000001 269.9011303 608.7180599000001 296.07223719999996 596.9276272000001 L 287.20068359999993 573.7456524 Z M 940.3471987 280.2270001 C 922.5029175000001 264.8360085 895.56033 266.8250116 880.1691014 284.6694113 C 871.5361476 294.6765058 852.1711776000001 317.12953089999996 843.6751758 326.992802 C 840.8660005 330.4048742 834.6804127 337.251765 831.5916468 340.36967469999996 C 817.1315973000001 355.50891629999995 796.4485232000001 378.0506759 781.1914033 392.10188329999994 L 755.0795317000001 417.2113749999999 C 746.1004068000001 425.10720459999993 722.9187874 445.4822550999999 714.2109601000001 453.1201741999999 C 704.0243826000001 461.3311356999999 688.9852487 473.4397803999999 678.8446378000001 481.6249152999999 C 599.6304449000002 542.4491512999999 512.5891354 596.8391296999998 418.3538161000001 631.1580532999999 C 410.82311290000007 633.6513858999999 414.05001560000005 644.1237144999999 421.2501857000001 642.7713723999999 C 464.3801244000001 633.4814989999999 505.7325299000001 618.8304748999999 546.6105791000001 602.7832745 C 598.8248446000001 581.1877397 649.7349856000001 556.227758 698.6936786000001 527.4936577 C 713.7541372000001 518.7082322 732.1403030000001 506.78132139999997 747.1050374000001 497.6724711 C 757.2300101000001 490.8134963 783.7311762000002 472.7514661 794.2061111000002 465.6080434 C 804.0946165000001 458.2196234 830.4171288000001 438.515709 839.9182353000001 431.3998899 C 850.3744519 423.2136888 873.4458936000001 403.9034522 884.1779098000001 395.1603207 C 892.6978426000001 388.3762193 904.5306878000001 377.2592921 912.7762427 369.8617499 C 914.2395918 368.5038397 944.8599811 341.0077574 944.7898465000001 340.4058082 C 960.1808381000001 322.5611716 958.1921904000001 295.61822870000003 940.3471984 280.22700010000005 Z M 306.8232087 625.0216308 C 294.25205470000003 630.5610799 281.5050902 635.7137224 268.5728378 640.4235217 C 259.7742621 643.1212161000001 263.2923655 655.6362151000001 271.8658471 654.0247777000001 C 285.9624288 650.7891082000001 299.8417354 646.9314680000001 313.5388341 642.5702092 L 306.82320869999995 625.0216307000001 Z" stroke-linecap="round" />
</g>
</g>
</g>
</svg>